<svg id="Layer_1" data-name="Layer 1" xmlns="http://www.w3.org/2000/svg" viewBox="0 0 512 512"><defs><style>.cls-1{fill:#fff;}</style></defs><rect width="512" height="512"/><path class="cls-1" d="M129.11,240.18v41.54q-32-1.31-47.55-17.66T66,213.45v-121h55.68V215.78Q121.68,235.78,129.11,240.18Zm14.28,41.54V239.66q6.84-4.41,6.85-23.88V92.49h55.68v121q0,34-15.42,50.35T143.39,281.72Z"/><path class="cls-1" d="M255,192.16l29.41,55.55L271,279.38h-54ZM218.49,92.49h55.39l96.23,186.89H315.86Zm118.22,92.67-30-58.15,12-34.52H373Z"/><path class="cls-1" d="M388.1,92.49h55.69V279.38H388.1Z"/><path class="cls-1" d="M100.65,355.6H66q.82-20.06,7.76-32.45A42.67,42.67,0,0,1,92.65,305q12-5.78,27.47-5.78a78.56,78.56,0,0,1,12,1q6.27,1,12.87,2.29l-3,26.74c-3.63-.66-6.74-1.17-9.33-1.55a53.66,53.66,0,0,0-7.83-.57q-8.09,0-13.37,2.44a15.56,15.56,0,0,0-7.84,8.64Q101.15,344.36,100.65,355.6Zm11.88,36v27.72q-13.86-.83-24.17-6.69t-16-17.85q-5.68-12-6.35-31.06h34.65q.33,12.39,3,18.91A15.34,15.34,0,0,0,112.53,391.63Zm8.25,27.88V382.17l-9.07-22.33h38.77v52.5a39.44,39.44,0,0,1-13.12,5.13A94.33,94.33,0,0,1,120.78,419.51Z"/><path class="cls-1" d="M195.69,396.2v21.19a33.54,33.54,0,0,1-10.56,1.79q-11.38,0-18.89-7t-7.51-21v-67h29.7v62.28Q188.43,395.21,195.69,396.2Zm6.6,9.13v-81.2H232v93.75H206.75Z"/><path class="cls-1" d="M244.37,294.78h31.35V317H244.37Zm.82,29.35h29.7v93.75h-29.7Z"/><path class="cls-1" d="M325.55,323.64v22.18q-6.44.65-8.25,7.5t-1.82,19.89q0,12.87,2,18.18t7.43,5.29h.66v21a30.44,30.44,0,0,1-10.4,1.79q-9.07,0-14.93-3.83A26.6,26.6,0,0,1,291,405.16a51.89,51.89,0,0,1-4.78-15.08,106.74,106.74,0,0,1-1.41-17.69q0-26.73,8.5-38.15t24.5-11.41a31.65,31.65,0,0,1,3.8.24C322.91,323.23,324.23,323.43,325.55,323.64ZM334,299.19l29.7-4.41v123.1H338.42L334,405Z"/><path class="cls-1" d="M417.13,419.51a69.31,69.31,0,0,1-17.74-2.12,31.72,31.72,0,0,1-13.78-7.5q-5.78-5.38-8.91-14.84t-3.14-24.13q0-22.82,8.25-35t26.57-13.12v24q-3.63,5.55-3.63,23.64,0,10.6,1.65,16.31a11.53,11.53,0,0,0,6.35,7.82q4.71,2.13,13.45,2.12A48.66,48.66,0,0,0,434,396q4-.64,7.84-1.47v22.18q-5.79,1.14-12.13,2A99.85,99.85,0,0,1,417.13,419.51ZM413,380.05V362h5.44q0-3.75-.24-8a17.11,17.11,0,0,0-1.73-7V323q15.66,1.31,22.6,11.17T446,362c0,3-.11,6.17-.33,9.37a63.22,63.22,0,0,1-1.16,8.72Z"/></svg>